<svg xmlns="http://www.w3.org/2000/svg" xmlns:xlink="http://www.w3.org/1999/xlink" width="122.337" height="132.109" viewBox="0 0 122.337 132.109">
  <defs>
    <linearGradient id="linear-gradient" x1="0.5" x2="0.5" y2="1" gradientUnits="objectBoundingBox">
      <stop offset="0" stop-color="#00b500"/>
      <stop offset="1" stop-color="#00740d"/>
    </linearGradient>
  </defs>
  <g id="Group_225" data-name="Group 225" transform="translate(-1292 2152.181)">
    <g id="Group_223" data-name="Group 223">
      <g id="Group_221" data-name="Group 221" transform="translate(56 -16)">
        <g id="Group_219" data-name="Group 219">
          <path id="Union_7" data-name="Union 7" d="M0,43.224a43.224,43.224,0,0,1,86.449,0c0,32.419-43.224,80.274-43.224,80.274S0,75.643,0,43.224Z" transform="translate(1236 -2136.181)" fill="url(#linear-gradient)"/>
          <path id="Icon_metro-home" data-name="Icon metro-home" d="M55.1,31.561,28.836,11.174,2.571,31.561V23.249L28.836,2.861,55.1,23.249Zm-6.566-.741v19.7H35.4V37.387H22.27V50.519H9.137V30.82l19.7-14.774Z" transform="translate(1250.429 -2121.855)" fill="#fff"/>
        </g>
      </g>
      <path id="Union_10" data-name="Union 10" d="M0,27.824C0,12.441,3.9,0,8.724,0s8.724,12.441,8.724,27.824c0,20.868-8.724,51.674-8.724,51.674S0,48.693,0,27.824Z" transform="matrix(0.259, 0.966, -0.966, 0.259, 1409.821, -2057.502)" fill="#606060" opacity="0.153"/>
    </g>
  </g>
</svg>
