<svg xmlns="http://www.w3.org/2000/svg" width="21" height="21" viewBox="0 0 21 21">
  <g id="Group_218" data-name="Group 218" transform="translate(-1659 -875)">
    <circle id="Ellipse_12" data-name="Ellipse 12" cx="10.5" cy="10.5" r="10.5" transform="translate(1659 875)" fill="#d8d8d8"/>
    <path id="Icon_awesome-plus" data-name="Icon awesome-plus" d="M8.032,5.648H5.252V2.868a.618.618,0,0,0-.618-.618H4.016a.618.618,0,0,0-.618.618v2.78H.618A.618.618,0,0,0,0,6.266v.618A.618.618,0,0,0,.618,7.5H3.4v2.78a.618.618,0,0,0,.618.618h.618a.618.618,0,0,0,.618-.618V7.5h2.78a.618.618,0,0,0,.618-.618V6.266A.618.618,0,0,0,8.032,5.648Z" transform="translate(1665.042 878.792)" fill="#fff"/>
  </g>
</svg>
