<svg xmlns="http://www.w3.org/2000/svg" width="45.953" height="81.253" viewBox="0 0 45.953 81.253">
  <path id="Icon_material-attach-money" data-name="Icon material-attach-money" d="M34.217,40.161C23.97,37.5,20.675,34.744,20.675,30.456c0-4.92,4.559-8.351,12.188-8.351,8.035,0,11.014,3.837,11.285,9.48h9.976c-.316-7.764-5.056-14.9-14.49-17.2V4.5H26.092v9.75c-8.757,1.9-15.8,7.584-15.8,16.3,0,10.427,8.622,15.619,21.216,18.643C42.794,51.9,45.051,55.87,45.051,60.068c0,3.115-2.212,8.08-12.188,8.08-9.3,0-12.955-4.153-13.452-9.48H9.48c.542,9.886,7.945,15.438,16.612,17.289v9.8H39.634V76.048c8.8-1.67,15.8-6.771,15.8-16.025C55.433,47.2,44.464,42.824,34.217,40.161Z" transform="translate(-9.48 -4.5)" fill="#ff963d"/>
</svg>
