<svg xmlns="http://www.w3.org/2000/svg" width="35.191" height="40.933" viewBox="0 0 75.191 85.933">
  <path id="Icon_awesome-shopping-bag" data-name="Icon awesome-shopping-bag" d="M59.079,26.854V21.483a21.483,21.483,0,1,0-42.967,0v5.371H0V72.506A13.427,13.427,0,0,0,13.427,85.933H61.764A13.427,13.427,0,0,0,75.191,72.506V26.854ZM26.854,21.483a10.742,10.742,0,0,1,21.483,0v5.371H26.854ZM53.708,41.624A4.028,4.028,0,1,1,57.736,37.6,4.028,4.028,0,0,1,53.708,41.624Zm-32.225,0A4.028,4.028,0,1,1,25.511,37.6,4.028,4.028,0,0,1,21.483,41.624Z" fill="#ff9c36"/>
</svg>
