<svg xmlns="http://www.w3.org/2000/svg" width="39.378" height="45.003" viewBox="0 0 59.378 95.003">
  <path id="Icon_awesome-walking" data-name="Icon awesome-walking" d="M38.586,17.81a8.905,8.905,0,1,0-8.905-8.905A8.908,8.908,0,0,0,38.586,17.81ZM56.118,45.472,51.8,43.283,50,37.829A20.228,20.228,0,0,0,31.035,23.747c-6.679-.019-10.371,1.874-17.31,4.675a17.7,17.7,0,0,0-9.221,8.571L3.262,39.517A5.956,5.956,0,0,0,5.9,47.476a5.857,5.857,0,0,0,7.885-2.653L15.025,42.3a5.9,5.9,0,0,1,3.061-2.857l4.972-2L20.238,48.7A11.915,11.915,0,0,0,23,59.609L34.115,71.743a11.973,11.973,0,0,1,2.764,5.139l3.4,13.6A5.937,5.937,0,1,0,51.8,87.6L47.677,71.093a11.868,11.868,0,0,0-2.764-5.139l-8.441-9.221,3.191-12.746,1.02,3.061a11.832,11.832,0,0,0,5.881,6.864L50.887,56.1a5.857,5.857,0,0,0,7.885-2.653,6.007,6.007,0,0,0-2.653-7.978Zm-42.467,26.1a11.512,11.512,0,0,1-2.634,3.989L1.741,84.859a5.936,5.936,0,0,0,8.386,8.4l11.02-11.02a12.059,12.059,0,0,0,2.634-3.989l2.5-6.271c-10.26-11.187-7.18-7.755-8.794-9.963l-3.84,9.555Z" transform="translate(-0.002)" fill="#ff9c36"/>
</svg>
