<svg xmlns="http://www.w3.org/2000/svg" width="68.494" height="78.279" viewBox="0 0 68.494 78.279">
  <path id="Icon_awesome-user-astronaut" data-name="Icon awesome-user-astronaut" d="M9.785,34.247h2.064a24.429,24.429,0,0,0,44.8,0h2.064A2.453,2.453,0,0,0,61.155,31.8V17.123a2.453,2.453,0,0,0-2.446-2.446H56.645a24.429,24.429,0,0,0-44.8,0H9.785a2.453,2.453,0,0,0-2.446,2.446V31.8A2.453,2.453,0,0,0,9.785,34.247ZM15.9,20.793c0-3.379,3.287-6.116,7.339-6.116H45.255c4.052,0,7.339,2.737,7.339,6.116v3.669A14.681,14.681,0,0,1,37.916,39.139H30.578A14.681,14.681,0,0,1,15.9,24.462ZM26.908,31.8l1.835-5.5,5.5-1.835-5.5-1.835-1.835-5.5-1.835,5.5-5.5,1.835,5.5,1.835ZM50.086,49.138a29.152,29.152,0,0,1-31.678,0A20.49,20.49,0,0,0,0,69.472V70.94a7.341,7.341,0,0,0,7.339,7.339H19.57V68.494A4.887,4.887,0,0,1,24.462,63.6h19.57a4.887,4.887,0,0,1,4.892,4.892v9.785H61.155a7.341,7.341,0,0,0,7.339-7.339V69.472A20.49,20.49,0,0,0,50.086,49.138Zm-8.5,19.356a2.446,2.446,0,1,0,2.446,2.446A2.453,2.453,0,0,0,41.585,68.494Zm-14.677,0a2.453,2.453,0,0,0-2.446,2.446v7.339h4.892V70.94A2.453,2.453,0,0,0,26.908,68.494Z" fill="#ff963d"/>
</svg>
