<svg xmlns="http://www.w3.org/2000/svg" width="94.7" height="88.781" viewBox="0 0 94.7 88.781">
  <path id="Icon_awesome-briefcase-medical" data-name="Icon awesome-briefcase-medical" d="M85.822,20.006h-14.8V11.128A8.88,8.88,0,0,0,62.147,2.25H32.553a8.88,8.88,0,0,0-8.878,8.878v8.878H8.878A8.88,8.88,0,0,0,0,28.884V82.153a8.88,8.88,0,0,0,8.878,8.878H85.822A8.88,8.88,0,0,0,94.7,82.153V28.884A8.88,8.88,0,0,0,85.822,20.006ZM35.512,14.087H59.187v5.919H35.512Zm29.594,45.87a1.484,1.484,0,0,1-1.48,1.48H53.269V71.8a1.484,1.484,0,0,1-1.48,1.48H42.911a1.484,1.484,0,0,1-1.48-1.48V61.437H31.073a1.484,1.484,0,0,1-1.48-1.48V51.08a1.484,1.484,0,0,1,1.48-1.48H41.431V39.242a1.484,1.484,0,0,1,1.48-1.48h8.878a1.484,1.484,0,0,1,1.48,1.48V49.6H63.626a1.484,1.484,0,0,1,1.48,1.48Z" transform="translate(0 -2.25)" fill="#ff963d"/>
</svg>
