<svg xmlns="http://www.w3.org/2000/svg" width="98.219" height="78.583" viewBox="0 0 98.219 78.583">
  <path id="Icon_awesome-procedures" data-name="Icon awesome-procedures" d="M81.031,34.381H41.743a2.463,2.463,0,0,0-2.455,2.455v22.1H9.822V22.1a2.463,2.463,0,0,0-2.455-2.455H2.455A2.463,2.463,0,0,0,0,22.1V76.124A2.463,2.463,0,0,0,2.455,78.58H7.366a2.463,2.463,0,0,0,2.455-2.455V68.758H88.4v7.366a2.463,2.463,0,0,0,2.455,2.455h4.911a2.463,2.463,0,0,0,2.455-2.455V51.569A17.18,17.18,0,0,0,81.031,34.381ZM20.872,14.737H40.224l4.236,8.471a2.452,2.452,0,0,0,4.389,0L56.476,7.954l3.392,6.783H78.575a2.455,2.455,0,1,0,0-4.911H62.906L58.671,1.355a2.452,2.452,0,0,0-4.389,0L46.654,16.609,43.6,10.5a1.233,1.233,0,0,0-1.1-.675H20.872a1.231,1.231,0,0,0-1.228,1.228v2.455A1.231,1.231,0,0,0,20.872,14.737Zm3.683,39.288A9.822,9.822,0,1,0,14.733,44.2,9.831,9.831,0,0,0,24.555,54.025Z" transform="translate(0 0.004)" fill="#ff963d"/>
</svg>
