<svg xmlns="http://www.w3.org/2000/svg" width="23.06" height="23.061" viewBox="0 0 29.06 29.061">
  <path id="Icon_awesome-pencil-alt" data-name="Icon awesome-pencil-alt" d="M28.262,8.067l-2.617,2.617a.682.682,0,0,1-.965,0l-6.3-6.3a.682.682,0,0,1,0-.965L21,.8A2.73,2.73,0,0,1,24.85.8l3.411,3.411A2.72,2.72,0,0,1,28.262,8.067Zm-12.13-2.4L1.226,20.571l-1.2,6.9A1.364,1.364,0,0,0,1.6,29.046l6.9-1.209L23.4,12.931a.682.682,0,0,0,0-.965l-6.3-6.3a.689.689,0,0,0-.971,0ZM7.044,19.294a.791.791,0,0,1,0-1.124l8.741-8.741a.795.795,0,1,1,1.124,1.124L8.168,19.294a.791.791,0,0,1-1.124,0ZM5,24.068H7.72v2.06l-3.661.641L2.293,25l.641-3.661H5Z" transform="translate(-0.002 -0.005)" fill="#8d8d8d"/>
</svg>
