<svg xmlns="http://www.w3.org/2000/svg" width="23.429" height="23.062" viewBox="0 0 25.429 29.062">
  <path id="Icon_awesome-trash-alt" data-name="Icon awesome-trash-alt" d="M1.816,26.337a2.725,2.725,0,0,0,2.725,2.725H20.888a2.725,2.725,0,0,0,2.725-2.725V7.265H1.816ZM17.255,11.806a.908.908,0,1,1,1.816,0V24.521a.908.908,0,1,1-1.816,0Zm-5.449,0a.908.908,0,0,1,1.816,0V24.521a.908.908,0,0,1-1.816,0Zm-5.449,0a.908.908,0,1,1,1.816,0V24.521a.908.908,0,0,1-1.816,0Zm18.164-9.99H17.709L17.176.755A1.362,1.362,0,0,0,15.956,0H9.468A1.346,1.346,0,0,0,8.253.755L7.72,1.816H.908A.908.908,0,0,0,0,2.725V4.541a.908.908,0,0,0,.908.908H24.521a.908.908,0,0,0,.908-.908V2.725A.908.908,0,0,0,24.521,1.816Z" fill="#8d8d8d"/>
</svg>
