<svg xmlns="http://www.w3.org/2000/svg" width="27.402" height="43.842" viewBox="0 0 27.402 43.842">
  <path id="Icon_awesome-walking" data-name="Icon awesome-walking" d="M17.808,8.219A4.11,4.11,0,1,0,13.7,4.11,4.111,4.111,0,0,0,17.808,8.219ZM25.9,20.984,23.9,19.974l-.83-2.517a9.335,9.335,0,0,0-8.75-6.5c-3.082-.009-4.786.865-7.988,2.158A8.167,8.167,0,0,0,2.08,17.072l-.574,1.164a2.749,2.749,0,0,0,1.216,3.673,2.7,2.7,0,0,0,3.639-1.224l.574-1.164A2.721,2.721,0,0,1,8.347,18.2l2.294-.925-1.3,5.2a5.5,5.5,0,0,0,1.276,5.034l5.128,5.6a5.525,5.525,0,0,1,1.276,2.372l1.567,6.276A2.74,2.74,0,1,0,23.9,40.428L22,32.808a5.477,5.477,0,0,0-1.276-2.372l-3.9-4.255L18.3,20.3l.471,1.413a5.46,5.46,0,0,0,2.714,3.168l1.995,1.01a2.7,2.7,0,0,0,3.639-1.224A2.772,2.772,0,0,0,25.9,20.984ZM6.3,33.03a5.313,5.313,0,0,1-1.216,1.841L.8,39.161a2.739,2.739,0,0,0,3.87,3.878L9.76,37.953a5.565,5.565,0,0,0,1.216-1.841l1.156-2.894c-4.735-5.163-3.313-3.579-4.058-4.6L6.3,33.03Z" transform="translate(-0.002)" fill="#c3c0bf"/>
</svg>
