<svg xmlns="http://www.w3.org/2000/svg" width="85.267" height="20" viewBox="0 0 85.267 20">
  <g id="Group_153" data-name="Group 153" transform="translate(-73 -20)">
    <text id="e-Sales" transform="translate(73 36)" fill="#848484" font-size="17" font-family="Montserrat-Medium, Montserrat" font-weight="500"><tspan x="0" y="0">e-Sales</tspan></text>
    <path id="Icon_awesome-map-marked-alt" data-name="Icon awesome-map-marked-alt" d="M8.826,0A3.861,3.861,0,0,0,4.965,3.861c0,1.724,2.524,4.867,3.491,6.007a.483.483,0,0,0,.742,0c.967-1.141,3.491-4.283,3.491-6.007A3.861,3.861,0,0,0,8.826,0Zm0,5.149a1.287,1.287,0,1,1,1.287-1.287A1.287,1.287,0,0,1,8.826,5.149ZM.617,6.618A.981.981,0,0,0,0,7.528V15.2a.49.49,0,0,0,.672.455L4.9,13.729V6.586a9.281,9.281,0,0,1-.651-1.423Zm8.209,4.4a1.464,1.464,0,0,1-1.119-.52c-.6-.711-1.243-1.521-1.823-2.351v5.578l5.884,1.961V8.152c-.58.83-1.22,1.64-1.823,2.351A1.465,1.465,0,0,1,8.826,11.022ZM16.98,4.939,12.749,6.865v8.826l4.287-1.715a.981.981,0,0,0,.617-.91V5.394A.49.49,0,0,0,16.98,4.939Z" transform="translate(140.615 20.225)" fill="#ff9c36"/>
  </g>
</svg>
