<svg xmlns="http://www.w3.org/2000/svg" xmlns:xlink="http://www.w3.org/1999/xlink" width="62" height="61" viewBox="0 0 62 61">
  <defs>
    <filter id="Ellipse_29" x="0" y="0" width="62" height="61" filterUnits="userSpaceOnUse">
      <feOffset dy="3" input="SourceAlpha"/>
      <feGaussianBlur stdDeviation="3" result="blur"/>
      <feFlood flood-opacity="0.161"/>
      <feComposite operator="in" in2="blur"/>
      <feComposite in="SourceGraphic"/>
    </filter>
  </defs>
  <g id="ic_note" transform="translate(9.4 5.508)">
    <g id="Group_173" data-name="Group 173" transform="translate(0 0)">
      <g transform="matrix(1, 0, 0, 1, -9.4, -5.51)" filter="url(#Ellipse_29)">
        <ellipse id="Ellipse_29-2" data-name="Ellipse 29" cx="22" cy="21.5" rx="22" ry="21.5" transform="translate(9 6)" fill="#ff9c36"/>
      </g>
    </g>
    <path id="Icon_material-event-note" data-name="Icon material-event-note" d="M17.691,9.98H8.269v1.884h9.422Zm1.884-6.6h-.942V1.5H16.749V3.384H9.211V1.5H7.327V3.384H6.384A1.876,1.876,0,0,0,4.509,5.269L4.5,18.46a1.884,1.884,0,0,0,1.884,1.884H19.576A1.89,1.89,0,0,0,21.46,18.46V5.269A1.89,1.89,0,0,0,19.576,3.384Zm0,15.076H6.384V8.1H19.576Zm-4.711-4.711h-6.6v1.884h6.6Z" transform="translate(8.943 11.152)" fill="#fff"/>
  </g>
</svg>
