<svg xmlns="http://www.w3.org/2000/svg" width="19.162" height="25.549" viewBox="0 0 19.162 25.549">
  <path id="Icon_awesome-file-download" data-name="Icon awesome-file-download" d="M11.178,6.787V0H1.2A1.2,1.2,0,0,0,0,1.2V24.352a1.2,1.2,0,0,0,1.2,1.2H17.964a1.2,1.2,0,0,0,1.2-1.2V7.984H12.375A1.2,1.2,0,0,1,11.178,6.787Zm3.815,10.547-4.811,4.776a.851.851,0,0,1-1.2,0L4.17,17.334a.8.8,0,0,1,.561-1.365H7.984V11.976a.8.8,0,0,1,.8-.8h1.6a.8.8,0,0,1,.8.8v3.992H14.43A.8.8,0,0,1,14.993,17.334ZM18.813,5.24,13.927.349A1.2,1.2,0,0,0,13.079,0h-.3V6.387h6.387v-.3A1.194,1.194,0,0,0,18.813,5.24Z" fill="#bcbcbc"/>
</svg>
