<svg xmlns="http://www.w3.org/2000/svg" width="31.274" height="27.799" viewBox="0 0 31.274 27.799">
  <path id="Icon_awesome-map-marked-alt" data-name="Icon awesome-map-marked-alt" d="M15.637,0A6.841,6.841,0,0,0,8.8,6.841c0,3.055,4.471,8.622,6.184,10.643a.856.856,0,0,0,1.314,0c1.713-2.021,6.184-7.588,6.184-10.643A6.841,6.841,0,0,0,15.637,0Zm0,9.122a2.28,2.28,0,1,1,2.28-2.28A2.28,2.28,0,0,1,15.637,9.122Zm-14.545,2.6A1.738,1.738,0,0,0,0,13.338V26.93a.869.869,0,0,0,1.191.807l7.5-3.412V11.669a16.443,16.443,0,0,1-1.154-2.52Zm14.545,7.8a2.594,2.594,0,0,1-1.982-.921c-1.067-1.26-2.2-2.694-3.23-4.166v9.882L20.85,27.8V14.443c-1.027,1.471-2.162,2.906-3.23,4.166A2.6,2.6,0,0,1,15.637,19.529ZM30.083,8.75l-7.5,3.412V27.8l7.595-3.038a1.737,1.737,0,0,0,1.092-1.613V9.557A.869.869,0,0,0,30.083,8.75Z" fill="#bcbcbc"/>
</svg>
