<svg xmlns="http://www.w3.org/2000/svg" width="25.864" height="25.864" viewBox="0 0 25.864 25.864">
  <path id="Icon_awesome-history" data-name="Icon awesome-history" d="M26.427,13.47A12.933,12.933,0,0,1,5.379,23.563a1.251,1.251,0,0,1-.1-1.857l.588-.588a1.254,1.254,0,0,1,1.663-.1A9.6,9.6,0,1,0,6.921,6.5L9.567,9.15a.834.834,0,0,1-.59,1.424H1.4A.834.834,0,0,1,.563,9.74V2.16a.834.834,0,0,1,1.424-.59L4.561,4.144A12.932,12.932,0,0,1,26.427,13.47Zm-9.434,4.108.512-.659a1.251,1.251,0,0,0-.22-1.756l-2.122-1.651V8.071A1.251,1.251,0,0,0,13.912,6.82h-.834a1.251,1.251,0,0,0-1.251,1.251v7.074L15.237,17.8a1.252,1.252,0,0,0,1.756-.22Z" transform="translate(-0.563 -0.563)" fill="#bcbcbc"/>
</svg>
