<svg xmlns="http://www.w3.org/2000/svg" width="20.737" height="20.74" viewBox="0 0 20.737 20.74">
  <path id="Icon_awesome-check-double" data-name="Icon awesome-check-double" d="M20.452,7.079l-1.6-1.6a.968.968,0,0,0-1.373,0l-9.7,9.7L3.263,10.659a.968.968,0,0,0-1.373,0L.282,12.267a.973.973,0,0,0,0,1.377l6.8,6.808a.968.968,0,0,0,1.373,0l11.989-12A.977.977,0,0,0,20.452,7.079ZM7.317,11.372a.643.643,0,0,0,.915,0L16.657,2.94a.65.65,0,0,0,0-.915L14.826.19a.643.643,0,0,0-.915,0L7.775,6.326,5.531,4.078a.643.643,0,0,0-.915,0L2.781,5.913a.65.65,0,0,0,0,.915Z" transform="translate(0.004 0.002)" fill="#ddd"/>
</svg>
