<svg xmlns="http://www.w3.org/2000/svg" width="16.404" height="29.17" viewBox="0 0 16.404 29.17">
  <path id="Icon_awesome-dollar-sign" data-name="Icon awesome-dollar-sign" d="M11.919,13.3,5.766,11.5A1.68,1.68,0,0,1,6.239,8.2h3.777a3.478,3.478,0,0,1,1.948.6.888.888,0,0,0,1.111-.114l1.983-1.937a.924.924,0,0,0-.1-1.4,8.056,8.056,0,0,0-4.928-1.709V.912A.914.914,0,0,0,9.116,0H7.293a.914.914,0,0,0-.912.912V3.646H6.239A6.242,6.242,0,0,0,.029,10.46a6.522,6.522,0,0,0,4.774,5.5l5.84,1.709a1.68,1.68,0,0,1-.473,3.293H6.393a3.478,3.478,0,0,1-1.948-.6.888.888,0,0,0-1.111.114L1.351,22.418a.924.924,0,0,0,.1,1.4,8.056,8.056,0,0,0,4.928,1.709v2.735a.914.914,0,0,0,.912.912H9.116a.914.914,0,0,0,.912-.912V25.512A6.436,6.436,0,0,0,16.05,21.37a6.256,6.256,0,0,0-4.13-8.073Z" transform="translate(-0.003)" fill="#ff9c36"/>
</svg>
