<svg xmlns="http://www.w3.org/2000/svg" width="26.032" height="22.908" viewBox="0 0 26.032 22.908">
  <path id="Icon_awesome-map-marked" data-name="Icon awesome-map-marked" d="M13.016,0A5.666,5.666,0,0,0,7.321,5.637c0,2.517,3.722,7.105,5.148,8.77a.717.717,0,0,0,1.094,0c1.426-1.665,5.148-6.253,5.148-8.77A5.666,5.666,0,0,0,13.016,0ZM.909,9.662A1.432,1.432,0,0,0,0,10.991v11.2a.722.722,0,0,0,.992.665l6.239-2.812V9.616a13.485,13.485,0,0,1-.96-2.077Zm12.106,6.43a2.168,2.168,0,0,1-1.65-.759c-.889-1.038-1.834-2.22-2.689-3.433v8.143l8.677,2.863V11.9c-.855,1.212-1.8,2.395-2.689,3.433A2.169,2.169,0,0,1,13.016,16.092ZM25.04,7.211,18.8,10.022V22.908l6.322-2.5a1.432,1.432,0,0,0,.909-1.329V7.875A.722.722,0,0,0,25.04,7.211Z" fill="#ff9c36"/>
</svg>
