<svg xmlns="http://www.w3.org/2000/svg" width="25.337" height="25.337" viewBox="0 0 25.337 25.337">
  <g id="Icon_ionic-md-speedometer" data-name="Icon ionic-md-speedometer" transform="translate(-3.375 -3.375)">
    <path id="Path_115" data-name="Path 115" d="M9,29.25H24.592v2.924H9Z" transform="translate(-0.752 -3.461)" fill="#ff9c36"/>
    <path id="Path_116" data-name="Path 116" d="M17.252,19.2a1.949,1.949,0,1,0-.536-3.825L12.654,12.41l-.244.213,2.978,4.062a1.9,1.9,0,0,0-.085.566A1.947,1.947,0,0,0,17.252,19.2Z" transform="translate(-1.209 -1.209)" fill="#ff9c36"/>
    <path id="Path_117" data-name="Path 117" d="M16.044,3.375A12.666,12.666,0,0,0,6.061,23.84H9.642l.244-.244,1.346-1.346L9.837,20.855,8.491,22.2a9.708,9.708,0,0,1-2.144-5.177h1.9V15.069h-1.9A9.708,9.708,0,0,1,8.491,9.892l1.346,1.34,1.395-1.395L9.892,8.491a9.708,9.708,0,0,1,5.177-2.144v1.9h1.949v-1.9A9.708,9.708,0,0,1,22.2,8.491l-1.34,1.346,1.395,1.395L23.6,9.892a9.708,9.708,0,0,1,2.144,5.177h-1.9v1.949h1.9A9.708,9.708,0,0,1,23.6,22.2l-1.346-1.34L20.855,22.25,22.2,23.6l.244.244h3.581A12.666,12.666,0,0,0,16.044,3.375Z" fill="#ff9c36"/>
  </g>
</svg>
