<svg xmlns="http://www.w3.org/2000/svg" width="21.604" height="24.691" viewBox="0 0 21.604 24.691">
  <path id="Icon_awesome-skull-crossbones" data-name="Icon awesome-skull-crossbones" d="M21.177,21.848l-6.847-3.33,6.847-3.33a.771.771,0,0,0,.345-1.035l-.69-1.381a.772.772,0,0,0-1.035-.345l-9,4.375-9-4.375a.772.772,0,0,0-1.035.345l-.69,1.381a.771.771,0,0,0,.345,1.035l6.847,3.33L.427,21.848a.771.771,0,0,0-.345,1.035l.69,1.381a.771.771,0,0,0,1.035.345L10.8,20.234l9,4.375a.772.772,0,0,0,1.035-.345l.69-1.381A.772.772,0,0,0,21.177,21.848ZM7.233,11.442,6.969,12.69a.94.94,0,0,0,.793,1.2h6.08a.94.94,0,0,0,.793-1.2l-.265-1.248a6.053,6.053,0,0,0,3.376-5.27C17.746,2.764,14.637,0,10.8,0S3.858,2.764,3.858,6.173A6.053,6.053,0,0,0,7.233,11.442ZM13.5,5.4a1.543,1.543,0,1,1-1.543,1.543A1.545,1.545,0,0,1,13.5,5.4Zm-5.4,0A1.543,1.543,0,1,1,6.558,6.944,1.545,1.545,0,0,1,8.1,5.4Z" transform="translate(0)" fill="#ff9c36"/>
</svg>
